<svg xmlns="http://www.w3.org/2000/svg" width="324.61" height="180.71" viewBox="0 0 324.61 180.71"><title>bramburalogo</title><g id="b3508799-c517-4423-ad7b-65e183c74747" data-name="Layer 2"><path d="M363.5,246.5,355,257.8l-41-57.92L292.5,226.5l-13-11-20,22-44-44-12.39,12.82L176,164.5l-44,67.91-11.7-16.6L98.5,248.5l-22,34,311-2Zm-272,22,28-40,6,10M174.07,179,195.5,211.5l-42,38ZM291.5,269.5l-27-27,15-17.56,13,9.56,21-25m50,43,1,18-7-10Z" transform="translate(-74.33 -163.58)" fill="#fff" stroke="#fff" stroke-miterlimit="10"/><polygon points="52.17 74.92 18.17 104.92 46.17 64.92 52.17 74.92" fill="none" stroke="#fff" stroke-miterlimit="10"/><polygon points="122.17 47.92 80.17 85.92 100.74 15.39 122.17 47.92" fill="none" stroke="#fff" stroke-miterlimit="10"/><polygon points="240.17 45.92 218.17 105.92 191.17 78.92 206.17 61.36 219.17 70.92 240.17 45.92" fill="none" stroke="#fff" stroke-miterlimit="10"/><polygon points="291.17 106.92 284.17 96.92 290.17 88.92 291.17 106.92" fill="none" stroke="#fff" stroke-miterlimit="10"/><path d="M74.33,343.51V286H88.89a35.18,35.18,0,0,1,7,.64,15.43,15.43,0,0,1,5.65,2.27,10.51,10.51,0,0,1,3.76,4.51,18.1,18.1,0,0,1,1.31,7.49,15.82,15.82,0,0,1-1,5.93,9.06,9.06,0,0,1-2.84,3.87,10.46,10.46,0,0,1-4.54,1.92,11.7,11.7,0,0,1,5.61,2.27,10.7,10.7,0,0,1,3.4,4.68,19.32,19.32,0,0,1,1.14,7,23.26,23.26,0,0,1-1.1,7.53,13.13,13.13,0,0,1-3.23,5.25,13.44,13.44,0,0,1-5.26,3.09,23,23,0,0,1-7.24,1Zm11.72-34.29H89a9.55,9.55,0,0,0,4.61-.89,4.71,4.71,0,0,0,2.17-2.7,14.23,14.23,0,0,0,.6-4.44,8.67,8.67,0,0,0-.89-4.22,5.12,5.12,0,0,0-2.69-2.31,12.77,12.77,0,0,0-4.58-.71H86.05Zm0,26h3.26q4.41,0,6.07-2.2t1.67-6.6a15.46,15.46,0,0,0-.78-5.43,5.53,5.53,0,0,0-2.52-3,9.63,9.63,0,0,0-4.65-1h-3Z" transform="translate(-74.33 -163.58)" fill="#fff"/><path d="M115.08,343.51V286H130a33.5,33.5,0,0,1,10,1.31,11.67,11.67,0,0,1,6.39,4.65q2.23,3.35,2.24,9.23a29.48,29.48,0,0,1-.61,6.29,12,12,0,0,1-2.13,4.75,10.46,10.46,0,0,1-4.29,3.23l8,28.05h-12l-6.6-26.06H126.8v26.06Zm11.72-33h3.41a9.07,9.07,0,0,0,4.47-.93,5,5,0,0,0,2.31-2.8,13.94,13.94,0,0,0,.67-4.65,10.59,10.59,0,0,0-1.45-6.07q-1.46-2.1-5.43-2.1h-4Z" transform="translate(-74.33 -163.58)" fill="#fff"/><path d="M153.64,343.51,164.78,286h13l11.07,57.51H178l-2.06-12.64h-9.09l-2.2,12.64Zm14.27-19.81h6.88l-3.47-23.22Z" transform="translate(-74.33 -163.58)" fill="#fff"/><path d="M194.46,343.51l1-57.51h12.42l7.1,36.28,7.6-36.28h12l1,57.51h-8.52l-.92-39-7.32,39H211.5l-7.67-39.26-.78,39.26Z" transform="translate(-74.33 -163.58)" fill="#fff"/><path d="M243.38,343.51V286h14.56a35.18,35.18,0,0,1,6.95.64,15.43,15.43,0,0,1,5.65,2.27,10.58,10.58,0,0,1,3.76,4.51,18.09,18.09,0,0,1,1.32,7.49,15.81,15.81,0,0,1-1,5.93,9.06,9.06,0,0,1-2.84,3.87,10.46,10.46,0,0,1-4.54,1.92,11.7,11.7,0,0,1,5.61,2.27,10.7,10.7,0,0,1,3.4,4.68,19.32,19.32,0,0,1,1.14,7,23.26,23.26,0,0,1-1.1,7.53,13.13,13.13,0,0,1-3.23,5.25,13.44,13.44,0,0,1-5.26,3.09,23,23,0,0,1-7.24,1Zm11.72-34.29H258a9.55,9.55,0,0,0,4.61-.89,4.71,4.71,0,0,0,2.17-2.7,14.23,14.23,0,0,0,.6-4.44,8.67,8.67,0,0,0-.89-4.22,5.1,5.1,0,0,0-2.7-2.31,12.67,12.67,0,0,0-4.57-.71H255.1Zm0,26h3.26q4.41,0,6.07-2.2t1.67-6.6a15.46,15.46,0,0,0-.78-5.43,5.53,5.53,0,0,0-2.52-3,9.63,9.63,0,0,0-4.65-1h-3Z" transform="translate(-74.33 -163.58)" fill="#fff"/><path d="M300.32,344.29q-6.52,0-10.15-2.24a11.89,11.89,0,0,1-5.08-6.46,31.66,31.66,0,0,1-1.45-10.26V286h11.57v41a27.75,27.75,0,0,0,.32,4.19,6.43,6.43,0,0,0,1.42,3.33,4.21,4.21,0,0,0,3.37,1.28,4.34,4.34,0,0,0,3.45-1.28,6.32,6.32,0,0,0,1.38-3.33,30.61,30.61,0,0,0,.28-4.19V286H317v39.33a31.64,31.64,0,0,1-1.46,10.26,11.84,11.84,0,0,1-5.08,6.46Q306.86,344.29,300.32,344.29Z" transform="translate(-74.33 -163.58)" fill="#fff"/><path d="M325.17,343.51V286h14.91a33.54,33.54,0,0,1,10,1.31,11.67,11.67,0,0,1,6.39,4.65q2.24,3.35,2.23,9.23a29.52,29.52,0,0,1-.6,6.29,12,12,0,0,1-2.13,4.75,10.43,10.43,0,0,1-4.3,3.23l8,28.05h-12L341,317.45h-4.11v26.06Zm11.72-33h3.4a9.08,9.08,0,0,0,4.48-.93,5,5,0,0,0,2.3-2.8,13.92,13.92,0,0,0,.68-4.65,10.58,10.58,0,0,0-1.46-6.07q-1.46-2.1-5.43-2.1h-4Z" transform="translate(-74.33 -163.58)" fill="#fff"/><path d="M363.72,343.51,374.87,286h13l11.08,57.51H388.08L386,330.87h-9.09l-2.2,12.64ZM378,323.7h6.88l-3.48-23.22Z" transform="translate(-74.33 -163.58)" fill="#fff"/></g></svg>