<?xml version="1.0" encoding="utf-8"?>
<!-- Generator: Adobe Illustrator 23.1.0, SVG Export Plug-In . SVG Version: 6.00 Build 0)  -->
<svg version="1.1" xmlns="http://www.w3.org/2000/svg" xmlns:xlink="http://www.w3.org/1999/xlink" x="0px" y="0px"
	 viewBox="0 0 1024 768" style="enable-background:new 0 0 1024 768;" xml:space="preserve">
<style type="text/css">
	.st0{fill:#FFFF00;}
</style>
<g id="Layer_1">
	<g>
		<path class="st0" d="M298.7,570c-1.55,0-2.66-0.18-3.37-0.38c0.19-0.71,0.58-1.76,1.36-3.11l202.09-350.04
			c0.78-1.34,1.49-2.21,2.01-2.73c0.52,0.52,1.23,1.39,2.01,2.73L704.9,566.52c0.78,1.34,1.17,2.39,1.36,3.11
			c-0.71,0.19-1.82,0.38-3.37,0.38H298.7z"/>
		<path d="M500.79,243l180.13,312H320.66L500.79,243 M500.79,198.26c-5.44,0-10.88,3.57-15,10.72L283.7,559.02
			c-8.25,14.29-1.5,25.98,15,25.98h404.19c16.5,0,23.25-11.69,15-25.98L515.79,208.98C511.67,201.84,506.23,198.26,500.79,198.26
			L500.79,198.26z"/>
	</g>
</g>
<g id="Layer_2">
	<g>
		<g transform="translate(0.000000,720.000000) scale(0.100000,-0.100000)">
			<path d="M4933.01,3695.91c0-1.63,1.9-18.52,4.07-37.31c6.24-52.02,9.76-45.21-33.35-63.73c-20.33-8.99-37.95-16.89-39.04-17.7
				c-1.08-0.82,15.72-9.53,37.14-18.79c29.82-13.35,39.31-18.52,39.31-22.33c0-2.72-1.9-21.79-4.07-42.22
				c-2.44-20.7-3.8-37.86-3.25-38.4s8.13,4.36,17.08,10.62c8.67,6.54,17.62,12.8,19.52,13.89c2.44,1.63,2.27-64.28,2.27-64.28
				v-65.76l-66.42,67.25l-66.42,67.25h-12.47c-10.57,0-13.56-1.37-20.33-9.06c-10.3-11.8-10.57-23.61,0-37.88
				c4.34-5.76,43.38-46.39,86.75-90.31l78.89-79.61v-45.29v-45.02l-65.88,66.43l-65.88,66.43h-12.2c-14.1,0-21.96-4.94-26.84-16.2
				c-7.32-18.39-5.69-20.59,85.4-112.82l85.4-86.47v-94.98c0-80.16-0.54-96.9-4.34-107.88c-2.44-7.14-5.42-12.08-6.51-10.71
				c-4.61,4.94-57.2,136.98-56.39,141.92c0.54,4.12,6.51,6.86,27.65,12.9c14.64,4.39,27.92,8.24,29.55,8.78
				c1.36,0.27-9.22,7.96-23.59,16.47c-16.81,10.43-26.03,17.57-26.03,20.59c0,2.47,2.98,16.47,6.78,30.75
				c3.52,14.27,6.24,26.08,5.96,26.63c-0.54,0.27-12.74-6.04-27.38-14.27l-26.57-15.1l-22.23,20.86l-21.96,20.86l-2.17-28.55
				c-1.08-15.65-2.44-29.65-2.98-31.02c-0.54-1.65-13.28-6.59-28.47-10.98c-15.18-4.12-27.38-8.51-27.38-9.33s5.15-4.67,11.66-8.24
				c6.24-3.57,17.62-10.71,25.21-15.65l14.1-8.78l-6.51-27.18c-3.52-14.82-6.51-28.27-6.51-30.2c0-1.65,10.84,3.02,24.13,10.43
				c13.28,7.41,25.21,13.45,26.57,13.45c2.44,0,61-143.02,59.37-144.67c-0.54-0.82-7.59,2.2-15.72,6.04
				c-10.84,5.49-31.18,24.16-82.69,76.31l-68.59,69.18v113.34c0,93.69-0.54,112.49-4.07,119.02c-5.15,10.08-11.66,13.62-25.75,13.62
				c-8.95,0-13.01-1.63-19.25-7.9l-7.86-7.9v-83.23c0-45.76-0.81-83.34-1.9-83.34c-0.81,0-15.45,13.62-32.53,30.5l-30.63,30.5v111.4
				c0,115.75-0.27,118.48-11.93,127.74c-6.24,5.45-23.59,6.54-31.72,2.18c-12.2-6.81-13.28-13.89-13.28-99.41
				c0-44.12-0.81-80.35-1.9-80.35c-1.36,0-19.79,17.98-41.48,39.49c-30.36,30.78-38.5,40.04-35.51,41.94
				c2.17,1.36,11.39,3.54,20.33,4.36c9.22,1.09,18.16,2.72,20.06,3.81c2.44,1.36-6.78,10.62-29.01,28.6
				c-18.16,14.44-32.8,26.69-32.8,27.24c0,0.82,6.78,18.52,14.91,40.04c8.4,21.24,14.64,39.22,14.1,39.77
				c-0.54,0.54-18.44-5.72-39.58-14.16c-21.42-8.17-39.04-14.98-39.85-14.98c-0.54,0-12.74,14.98-27.38,32.96
				c-21.69,27.51-26.57,32.14-28.47,28.05c-1.08-3-4.34-21.52-7.32-41.67c-2.98-19.88-5.96-36.77-6.51-37.59
				c-0.81-0.54-17.62-3.54-37.41-6.54c-20.06-3-38.5-6.26-41.48-7.35c-4.07-1.91,0.54-6.81,27.92-28.6
				c17.89-14.71,32.8-26.96,32.8-27.51c0-0.82-6.78-18.52-14.91-40.04c-8.4-21.24-14.64-39.22-14.1-39.77
				c0.54-0.54,18.43,5.72,39.58,14.16c20.87,8.17,38.77,14.98,39.58,14.98c0.54,0,13.01-14.71,27.38-32.96
				c17.89-22.06,27.11-31.59,28.19-29.14c1.08,1.91,2.71,9.81,3.8,17.16c4.34,33.23-0.54,34.86,50.7-16.61
				c25.21-25.33,45.82-46.85,45.82-47.94c0-1.36-40.94-2.18-91.09-2.18c-61.54,0-92.72-1.09-96.78-3
				c-19.79-10.08-20.88-38.4-1.9-49.57c6.78-4.09,20.6-4.63,129.31-4.63h121.45l30.63-30.78c16.54-16.89,30.36-31.59,30.36-32.68
				c0-1.09-42.29-1.91-93.8-1.91h-92.82l-7.86-7.9c-14.64-14.71-9.22-39.22,10.3-46.85c3.8-1.36,58.29-2.45,126.33-2.45h119.83
				l62.9-63.19c46.9-47.66,64.52-67,69.94-77.9c3.8-8.17,6.51-15.25,5.96-15.8c-1.36-1.63-137.45,55.02-140.97,58.56
				c-1.63,1.63,2.44,11.98,12.47,29.96c8.13,15.25,13.83,27.51,12.2,27.51c-1.36,0-14.91-3-29.82-6.81
				c-14.91-3.81-27.65-6.81-27.92-6.26c-0.27,0.54-7.86,12.26-16.27,26.15c-10.3,16.61-16.54,24.24-17.62,21.79
				c-1.08-1.91-4.61-13.89-8.13-26.69c-3.52-12.8-7.59-24.79-8.95-26.42c-1.9-2.45-11.66-3.54-32.8-3.54h-27.92l21.87-21.97
				l22.14-22.24l-14.67-26.53c-8-14.74-14.4-27.07-13.87-27.33c0.27-0.54,12,2.14,25.87,5.63c13.87,3.75,27.21,6.7,29.34,6.7
				s10.4-10.72,18.67-24.12c8-13.4,15.2-24.12,16.27-24.12c0.8,0,5.07,11.79,9.07,26.26c4,14.2,7.74,26.26,8,26.8
				c0.8,0.8,135.5-54.4,141.1-57.88c1.33-0.8-2.93-3.48-9.34-6.16c-10.4-4.29-22.14-4.82-113.1-4.82h-102.87l-78.62,76.15
				c-78.89,78.99-78.89,78.99-90.55,78.99c-16.27,0-27.38-11.17-27.38-27.51c0-11.71,0.54-12.26,58.83-71.09l58.83-59.26h-45.44
				h-46.09l-78.62,78.99l-78.89,78.99h-12.2c-20.06,0-32.8-16.07-28.19-34.59c1.08-4.9,22.77-28.87,59.1-65.37l57.2-58.01h-57.47
				c-45.54,0-57.47,0.82-55.85,3.54c1.08,1.63,7.32,10.62,13.83,19.34c6.24,8.99,11.12,16.61,10.57,17.43
				c-0.54,0.54-17.62-1.09-37.95-3.27c-20.06-2.45-39.04-4.36-41.75-4.36c-4.07,0-8.95,8.44-22.23,38.95
				c-9.22,21.24-17.35,38.95-17.62,39.49c-0.27,0.27-8.4-16.89-17.62-38.13c-9.49-21.52-17.62-39.49-17.89-40.04
				c-0.54-0.54-19.52,1.09-42.29,3.54c-22.77,2.45-42.29,4.36-43.38,4.36s9.49-15.8,23.86-35.41l26.03-35.41l-26.03-35.41
				c-14.37-19.34-24.4-35.41-22.5-35.41c1.63,0,18.43,1.91,37.14,4.09c51.78,6.26,44.73,10.08,64.79-35.68
				c9.49-21.52,17.62-38.95,17.89-38.68c0.27,0.54,8.4,18.25,17.62,39.77c14.1,32.41,17.89,38.68,22.77,38.68
				c2.98,0,21.96-1.91,42.02-4.09c20.06-2.18,36.87-3.81,37.14-3.27c0.54,0.54-5.15,9.26-12.47,19.88l-13.56,18.79l64.25,1.36
				c35.51,0.82,65.06,1.09,65.88,0.54c0.54-0.27-28.74-30.78-65.06-67.27l-66.42-66.73v-12.53c0-10.62,1.37-13.62,9.02-20.43
				c11.75-10.35,23.5-10.62,37.71,0c5.74,4.36,46.18,43.58,89.89,87.16l79.24,79.26h45.08h44.81l-66.12-66.18l-66.12-66.18v-12.26
				c0-14.16,4.92-22.06,16.12-26.96c18.31-7.35,20.49-5.72,112.3,85.79l86.07,85.79h94.54c79.78,0,96.45-0.54,107.38-4.36
				c7.1-2.45,12.02-5.45,10.66-6.54c-4.92-4.9-136.34-57.47-141.26-56.65c-4.1,0.54-6.83,6.54-12.84,27.78
				c-4.37,14.71-8.2,28.05-8.74,29.69c-0.27,1.36-7.92-9.26-16.39-23.7c-10.38-16.89-17.49-26.15-20.49-26.15
				c-2.46,0-16.39,3-30.6,6.81c-14.21,3.54-25.96,6.26-26.23,5.99c-0.55-0.27,6.01-12.8,14.21-27.51l14.75-26.69l-20.77-22.33
				l-20.77-22.06l28.42-2.18c15.57-1.09,29.51-2.45,30.88-3c1.64-0.54,6.56-13.35,10.93-28.6c4.1-15.25,8.47-27.51,9.29-27.51
				s4.65,5.17,8.2,11.71c3.55,6.26,10.66,17.7,15.57,25.33l8.74,14.16l28.14-6.81c15.3-3.54,28.69-5.99,29.78-5.72
				c1.09,0.54-3.83,11.17-11.2,23.97c-7.38,12.8-13.12,24.51-13.12,25.87c0,2.72,141.81,62.1,143.72,60.19
				c0.82-0.54-2.19-7.63-6.01-15.8c-5.46-10.89-24.04-31.32-75.96-83.07l-68.85-68.91h-114.66c-76.18,0-112.51-0.82-116.57-3
				c-10.3-5.17-15.45-13.89-15.45-26.42c0-9.53,1.63-13.35,7.86-19.88l7.86-7.9h81.98c45.54,0,82.96-0.82,82.96-2.18
				c0-1.09-13.83-15.8-30.63-32.68l-30.36-30.5h-110.61c-76.18,0-112.51-0.82-116.57-3c-20.6-10.62-20.6-40.58,0-51.2
				c3.8-1.91,32.26-3,85.94-3c44.19,0,80.25-0.82,80.25-2.18c0-1.09-18.16-20.15-40.39-42.49c-45.27-45.48-40.94-44.4-45.27-11.17
				c-1.08,7.63-2.71,15.25-3.8,17.16c-1.08,2.45-10.3-7.08-28.19-29.14c-14.37-18.25-26.57-32.96-27.11-32.96
				c-0.81,0-18.43,6.81-39.85,14.98c-21.15,8.44-39.04,14.71-39.58,14.16c-0.54-0.54,5.69-18.52,14.1-39.77
				c8.13-21.52,14.91-39.22,14.91-40.04c0-0.54-14.64-12.8-32.53-27.24c-18.16-14.44-31.99-26.96-31.45-27.78
				c0.81-0.82,19.25-4.09,41.21-7.63c21.96-3.54,40.12-6.81,40.94-7.35c0.54-0.82,3.52-17.7,6.51-37.59
				c2.98-20.15,6.24-38.68,7.32-41.67c1.9-4.09,6.78,0.54,28.47,28.05c14.64,17.98,26.84,32.96,27.38,32.96
				c0.81,0,18.43-6.81,39.85-14.98c21.15-8.44,39.04-14.71,39.58-14.16c0.54,0.54-5.69,18.52-14.1,39.77
				c-8.13,20.97-14.91,38.95-14.91,39.77c0,0.54,14.64,13.07,32.8,27.51c21.96,17.98,31.45,27.24,29.01,28.33
				c-1.9,1.09-9.49,2.72-17.08,3.81c-33.07,4.36-34.7-0.54,16.54,50.93c25.21,25.33,46.63,46.03,47.71,46.03
				c1.36,0,2.17-41.13,2.17-91.51c0-61.83,1.08-93.15,2.98-97.23c10.03-19.88,38.23-20.97,49.34-1.91
				c4.07,6.81,4.61,20.7,4.61,129.92v122.02l30.63,30.78c16.81,16.61,31.45,30.5,32.53,30.5s1.9-42.49,1.9-94.24v-94.35l7.86-7.9
				c6.51-6.26,10.3-7.9,19.79-7.9c12.47,0.27,17.35,2.72,24.67,13.62c4.07,5.99,4.61,18.25,4.61,129.37v122.84l64.6,64.36
				c49.95,49.91,67.32,65.45,77.63,70.09c7.33,3.27,13.84,5.18,14.39,4.64c1.36-1.36-55.1-137.99-58.63-141.54
				c-1.63-1.64-12.21,2.73-29.86,12.54c-15.2,8.18-27.42,13.91-27.42,12.27c0-1.36,2.99-15,6.79-30s6.79-27.82,6.24-28.09
				c-0.54-0.27-12.49-7.91-26.6-16.64l-25.52-16.09l25.52-7.64c14.12-4.09,27.69-8.73,29.86-9.82c2.99-1.64,4.34-9.54,5.43-32.73
				l1.36-30.54l21.44,21.82l21.72,21.82l28.23-15.27c22.26-12,27.96-14.18,26.87-10.09c-4.07,13.36-12.76,50.18-12.76,53.45
				c0,1.91,11.94,10.91,26.33,19.64l26.33,16.09l-28.23,8.18c-15.74,4.36-28.77,8.45-29.32,8.73
				c-0.81,0.55,29.04,74.18,55.65,137.72l4.07,9.54l4.89-12.27c4.61-11.18,5.16-21.27,5.16-115.9v-103.5l-77.64-78.99
				c-78.62-79.26-78.62-79.26-78.62-90.97c0-16.34,11.12-27.51,27.65-27.51c11.66,0,11.93,0.27,70.49,59.1l60.83,59.38v-44.15v-47.1
				l-79.97-80.35l-79.97-80.62v-12.47c0-20.5,16.27-33.52,35.3-28.81c4.69,1.11,28.96,23.27,66.19,60.4l58.46,58.46v-57.68
				c0,0-2.54-57.74-4.98-56.11c-1.9,1.36-10.84,7.35-19.52,13.89c-8.68,6.54-16.54,11.44-17.08,10.89
				c-0.54-0.54,0.81-17.98,3.25-38.68c2.17-20.43,4.07-39.49,4.07-41.94c0-3.54-10.03-9.26-38.5-22.06
				c-21.42-9.26-39.04-17.43-39.58-17.7c-0.54-0.54,16.81-8.44,38.5-17.98c45.54-20.16,41.75-12.8,35.51-65.1
				c-2.17-18.79-4.07-35.68-4.07-37.31c0-1.91,15.72,8.17,35.24,22.61l35.24,26.15l35.24-26.15c19.52-14.44,35.24-24.51,35.24-22.61
				c0,1.63-1.9,19.07-4.07,38.68c-2.17,19.61-4.07,37.86-4.07,40.85c0,4.36,7.59,8.72,39.58,22.88
				c21.69,9.53,39.04,17.43,38.5,17.98c-0.54,0.27-18.16,8.44-39.31,17.7c-28.74,12.8-38.77,18.52-38.77,22.06
				c0,2.45,1.9,21.52,4.07,41.94c2.44,20.7,3.8,38.13,3.25,38.68c-0.54,0.54-8.4-4.36-17.08-10.89
				c-8.68-6.54-17.62-12.53-19.25-13.89c-2.71-1.63-4.51,64.28-4.51,64.28v65.98l66.42-67.25l66.42-67.25h12.47
				c10.57,0,13.55,1.37,20.33,9.06c10.3,11.8,10.57,23.61,0,37.88c-4.34,5.76-43.38,46.39-86.75,90.31l-78.89,79.61v45.29v45.02
				l65.88-66.43l65.88-66.43h12.2c14.1,0,21.96,4.94,26.84,16.2c7.32,18.39,5.69,20.59-85.4,112.82l-85.4,86.47l0.27,96.08
				c0,85.65,0.54,97.45,4.88,108.16c2.71,6.59,5.42,10.98,6.51,9.61c4.61-7.96,56.12-137.25,56.12-141.37
				c0-4.67-9.49-8.51-52.05-20.59c-2.71-0.82-4.88-2.2-4.88-3.29c0-1.1,11.12-8.51,24.4-16.47c15.72-9.33,24.4-16.2,24.4-19.22
				c0-2.47-2.98-16.2-6.51-29.92c-3.25-14-5.15-25.53-3.8-25.53s13.56,6.04,27.11,13.73l24.4,13.73l22.23-20.59l21.96-20.59l2.17,28
				c1.08,15.65,2.44,29.65,2.98,31.29c0.54,1.65,13.56,6.59,28.47,10.71c15.18,4.39,27.38,8.51,27.38,9.33
				c0,0.82-5.15,4.67-11.66,8.24c-6.24,3.84-17.62,10.71-25.21,15.65l-13.83,9.06l6.23,26.9c3.52,14.82,6.51,28.27,6.51,30.2
				c0,1.65-10.84-3.02-24.13-10.43c-13.28-7.41-25.21-13.45-26.57-13.45c-2.17,0.27-61.27,143.02-59.64,144.67
				c0.54,0.55,7.05-1.65,14.37-4.94c10.3-4.67,28.47-21.14,83.23-76.04l69.67-70.27V2312.3c0-76.53,0.81-113.03,2.98-117.12
				c5.15-10.35,13.83-15.52,26.3-15.52c9.49,0,13.28,1.63,19.79,7.9l7.86,7.9v83.45c0,45.76,0.81,83.34,2.17,83.34
				c1.08,0,15.72-13.89,32.53-30.78l30.36-30.5v-111.12c0-76.53,0.81-113.03,2.98-117.12c10.57-20.7,40.39-20.7,50.97,0
				c1.9,3.81,2.98,32.41,2.98,86.34c0,44.4,0.81,80.62,2.17,80.62c1.08,0,20.06-18.25,42.29-40.58
				c45.27-45.48,44.19-41.13,11.12-45.48c-7.32-1.09-15.18-2.72-17.08-3.81c-2.44-1.09,7.05-10.35,29.01-28.33
				c18.16-14.44,32.8-26.96,32.8-27.51c0-0.82-6.78-18.79-14.91-39.77c-8.4-21.24-14.64-39.22-14.1-39.77
				c0.54-0.54,18.44,5.72,39.58,14.16c21.42,8.17,39.04,14.98,39.85,14.98c0.54,0,12.74-14.98,27.38-32.96
				c21.69-27.51,26.57-32.14,28.47-28.05c1.08,3,4.34,21.52,7.32,41.67c2.98,19.88,5.96,36.77,6.51,37.59
				c0.81,0.54,17.62,3.54,37.41,6.54c20.06,3,38.5,6.26,41.48,7.35c4.07,1.91-0.54,6.81-27.92,28.6
				c-17.89,14.71-32.8,26.96-32.8,27.51c0,0.82,6.78,18.52,14.91,40.04c8.4,21.24,14.64,39.22,14.1,39.77
				c-0.54,0.54-18.44-5.72-39.58-14.16c-21.42-8.17-39.04-14.98-39.85-14.98c-0.54,0-12.74,14.71-27.11,32.96
				c-17.89,22.06-27.11,31.59-28.19,29.14c-1.08-1.91-2.71-9.53-3.8-17.16c-4.34-33.23,0.54-34.86-50.7,16.61
				c-25.21,25.33-45.82,46.85-45.82,47.94c0,1.36,40.94,2.18,91.09,2.18c61.54,0,92.72,1.09,96.78,3
				c14.37,7.35,19.25,23.7,12.2,39.22c-6.78,14.98-7.86,14.98-139.62,14.98h-121.45l-30.63,30.78
				c-16.54,16.89-30.36,31.59-30.36,32.68c0,1.09,42.29,1.91,93.8,1.91h94.78l7.86,7.9c6.24,6.54,7.86,10.35,7.86,19.88
				c-0.27,12.53-2.71,17.43-13.55,24.79c-5.96,4.09-18.16,4.63-128.77,4.63h-122l-62.9,63.46c-46.9,47.39-64.52,66.73-69.94,77.62
				c-3.8,8.17-6.51,15.25-5.96,15.8c1.36,1.63,137.18-54.75,140.7-58.29c1.9-1.91-1.9-11.71-12.2-30.23
				c-8.13-15.25-13.83-27.51-12.2-27.51c1.36,0,14.91,3.27,29.82,7.08c21.96,5.45,27.92,6.26,29.82,3.27
				c1.36-1.91,8.68-13.89,16.27-26.69l14.1-23.15l7.86,25.87c4.07,14.16,8.68,27.78,9.76,29.96c1.63,3,9.49,4.36,32.53,5.45
				l30.36,1.36l-21.69,21.52l-21.69,21.79l15.18,28.33c11.93,22.33,14.1,28.05,10.03,26.96c-13.28-4.09-49.88-12.8-53.14-12.8
				c-1.9,0-10.3,11.17-18.16,24.51c-7.86,13.62-15.45,24.51-16.54,24.51s-5.42-11.98-9.49-26.42c-4.07-14.71-7.86-26.96-8.13-27.51
				c-1.08-1.09-140.16,56.65-143.14,59.38c-1.36,1.09,3.52,4.09,10.57,6.54c11.12,3.81,27.92,4.36,114.68,4.36h101.93l78.62-78.99
				c78.89-78.99,78.89-78.99,90.55-78.99c16.54,0,27.38,11.17,27.38,27.78c-0.27,11.71-0.81,12.26-58.02,71.09l-58.02,59.1h45h45.27
				l78.62-78.99l78.89-78.99h12.2c20.06,0,32.8,16.07,28.19,34.86c-1.08,4.63-22.77,28.6-59.1,65.37l-57.2,57.74h57.47
				c45.54,0,57.47-0.82,55.85-3.27c-1.08-1.91-7.32-10.89-13.83-19.61c-6.24-8.99-11.12-16.61-10.57-17.16
				c0.27-0.54,17.08,1.09,37.14,3.27s39.04,4.09,42.02,4.09c4.88,0,8.68-6.26,22.77-38.68c9.22-21.52,17.35-39.22,17.62-39.77
				c0.27-0.27,8.4,17.16,17.89,38.68c20.06,45.76,13.01,41.94,64.79,35.68c18.71-2.18,35.51-4.09,37.14-4.09
				c1.9,0-8.13,16.07-22.5,35.41l-26.03,35.41l26.3,35.68l26.3,35.95l-13.28-1.63c-29.28-3.81-74.28-7.9-75.1-7.08
				c-0.27,0.54-7.86,17.7-16.54,37.86c-8.68,20.15-16.54,37.59-17.62,38.68c-0.81,1.09-9.22-15.8-18.71-37.31
				c-13.55-31.05-18.43-39.49-22.5-39.49c-2.71,0-21.69,1.91-41.75,4.36c-20.33,2.18-37.41,3.81-37.95,3.27
				c-0.54-0.82,4.34-8.44,10.57-17.43c6.51-8.72,12.74-17.7,13.83-19.34c1.63-2.72-11.93-3.54-63.98-3.54h-66.55l66.94,66.73
				l66.94,66.73V2895c0,10.62-1.37,13.62-9.02,20.43c-9.84,8.72-21.04,10.35-32.79,4.09c-4.1-2.18-44.81-41.4-90.71-87.16
				l-83.34-83.34h-45.08h-44.81l66.12,66.18l66.12,66.18v12.26c0,14.16-4.92,22.06-16.12,26.96c-18.31,7.35-20.49,5.72-112.3-85.79
				l-86.07-85.79l-95.63,0.27c-85.25,0-97,0.54-107.65,4.9c-6.56,2.72-10.93,5.45-9.56,6.54c10.38,6.26,137.44,56.38,141.54,55.83
				c4.1-0.54,6.83-6.54,12.84-27.78c7.38-25.6,9.56-31.05,11.48-28.6c0.55,0.54,7.38,11.71,15.3,25.06
				c9.02,14.98,16.12,23.7,18.85,23.7c2.46,0,16.67-3,31.15-6.54l26.5-6.26l-5.19,9.81c-2.73,5.45-9.29,17.7-14.75,26.96
				l-9.84,17.43l20.77,22.06l20.77,22.33l-28.42,2.18c-15.57,1.09-29.51,2.45-30.88,3c-1.64,0.54-6.56,13.35-10.93,28.6
				c-4.1,15.25-8.47,27.51-9.29,27.51c-0.82,0-4.65-5.17-8.2-11.71c-3.55-6.26-10.66-17.7-15.57-25.33l-8.74-14.16l-27.05,6.54
				c-14.75,3.54-28.14,6.54-30.06,6.54c-1.64,0,3.01-10.89,10.38-24.24c7.38-13.35,13.39-25.33,13.39-26.69
				c-0.27-2.45-142.36-61.28-144-59.65c-0.82,0.54,2.19,7.63,6.01,15.8c5.46,10.89,24.04,31.32,75.96,83.34l68.85,68.64h113.91
				c76.18,0,112.51,0.82,116.57,3c10.3,5.18,15.45,13.89,15.45,26.42c0,9.53-1.63,13.35-7.86,19.88l-7.86,7.9h-83.94
				c-45.54,0-82.96,0.82-82.96,2.18c0,1.09,13.83,15.8,30.63,32.68l30.36,30.5h110.61c76.18,0,112.51,0.82,116.57,3
				c20.6,10.62,20.6,40.58,0,51.2c-3.8,1.91-32.26,3-85.94,3c-44.19,0-80.25,0.82-80.25,2.18c0,1.09,18.16,20.16,40.39,42.49
				c45.27,45.48,40.94,44.4,45.27,11.17c1.08-7.35,2.71-15.25,3.8-17.16c1.08-2.45,10.3,7.08,28.19,29.14
				c14.37,18.25,26.84,32.96,27.38,32.96c0.81,0,18.71-6.81,39.58-14.98c21.15-8.44,39.04-14.71,39.58-14.16s-5.69,18.52-14.1,39.77
				c-8.13,21.52-14.91,39.22-14.91,40.04c0,0.54,14.91,12.8,32.8,27.51c27.38,21.79,31.99,26.69,27.92,28.6
				c-2.98,1.09-21.42,4.36-41.48,7.35c-19.79,3-36.6,5.99-37.41,6.54c-0.54,0.82-3.52,17.7-6.51,37.59
				c-2.98,20.16-6.24,38.68-7.32,41.67c-1.9,4.09-6.78-0.54-28.47-28.05c-14.64-17.98-26.84-32.96-27.38-32.96
				c-0.81,0-18.44,6.81-39.85,14.98c-21.15,8.44-39.04,14.71-39.58,14.16s5.69-18.52,14.1-39.77c8.13-20.97,14.91-38.95,14.91-39.77
				c0-0.54-14.64-13.07-32.8-27.51c-21.96-17.98-31.45-27.24-29.01-28.33c1.9-1.09,10.3-2.72,18.44-3.81
				c31.18-4.09,32.8,0-17.89-50.93c-25.21-25.33-46.63-46.03-47.71-46.03c-1.36,0-2.17,41.13-2.17,91.51
				c0,95.06-0.27,98.6-11.93,107.86c-11.66,9.53-35.51,3.81-41.75-10.08c-2.44-5.17-3.25-40.31-3.25-128.83v-121.75l-30.63-30.78
				c-16.81-16.61-31.45-30.5-32.53-30.5c-1.08,0-1.9,42.49-1.9,94.24v94.13l-7.86,7.9c-6.51,6.26-10.3,7.9-19.79,7.9
				c-12.47-0.27-17.35-2.72-24.67-13.62c-4.07-5.99-4.61-18.25-4.61-129.37v-122.56l-62.9-63.19
				c-47.44-47.12-66.69-64.82-77.53-70.27c-8.13-3.81-15.18-6.54-15.72-5.99c-1.63,1.63,54.76,138.09,58.29,141.63
				c1.63,1.63,11.93-2.45,28.74-11.71c14.37-7.63,26.84-13.62,27.38-12.8c0.81,0.82-1.9,13.89-5.69,29.14
				c-5.69,22.61-6.51,28.6-3.52,30.5c1.9,1.36,13.83,8.72,26.3,16.34c15.18,9.26,21.42,14.44,18.98,15.8
				c-2.17,1.09-14.1,4.63-26.84,8.17s-24.67,7.63-26.3,8.99c-2.44,1.91-3.52,11.71-3.52,32.96v30.47l-22.27-22.37l-22.54-22.65
				l-26.89,15.01c-14.94,8.19-27.43,14.73-27.7,14.19c-0.54-0.27,2.17-12.28,5.7-26.47c3.8-14.19,6.79-27.83,6.79-30.01
				c0-2.46-10.32-10.37-24.44-18.83c-13.31-7.91-24.44-15.55-24.44-16.64c0-1.09,11.95-5.46,26.62-9.55
				c14.39-4.09,26.62-7.91,27.16-8.19c0.81-0.82-55.13-138.61-58.66-144.34c-0.81-1.36-3.53,3-6.25,9.55
				c-4.35,10.64-4.89,22.65-4.89,115.69v103.51l79.6,78.99c78.62,79.26,78.62,79.26,78.62,90.97c0,9.26-1.63,13.35-8.13,19.61
				c-6.78,7.08-9.76,8.17-20.33,7.35c-11.93-0.82-13.28-1.91-70.49-59.1l-56.56-58.56v48.18v45.5l77.26,77.62l77.26,77.89v12.04
				c0,19.81-15.72,32.39-33.84,27.84c-4.8-1.07-28.24-22.48-63.94-58.35l-56.75-56.48v57.8c0,0-0.92,57.74,1.79,56.11
				c1.63-1.09,10.57-7.35,19.25-13.89c8.95-6.26,16.54-11.17,17.35-10.62c0.54,0.54-1.08,17.7-3.25,38.13
				c-2.44,20.16-4.34,39.22-4.34,42.22c0,4.09,7.86,8.72,39.31,22.61c21.42,9.26,38.23,17.7,37.14,18.79
				c-1.08,0.82-18.44,8.72-38.5,17.43c-20.06,8.72-37.14,16.34-37.68,16.61c-0.81,0.82,3.25,46.03,7.05,75.44l1.63,13.35
				l-35.79-26.42l-35.51-26.42l-35.24,26.15C4949,3687.74,4933.01,3697.82,4933.01,3695.91z M5019.49,2836.06
				c7.86-22.33,15.45-40.85,16.81-40.85s11.39,4.36,22.23,9.81c10.57,5.45,28.19,13.89,39.04,18.79l19.25,8.99l-11.39-24.79
				c-6.51-13.89-15.18-32.14-19.52-40.85c-5.42-10.89-6.78-16.34-4.61-17.7c1.63-1.09,20.33-7.9,41.21-15.25
				c21.15-7.35,38.23-14.16,38.23-15.25c0-0.82-17.08-7.63-37.95-14.98c-20.6-7.08-39.31-14.16-41.21-15.25
				c-2.71-1.63-1.63-5.99,4.34-17.98c4.34-8.72,13.01-26.96,19.52-40.85l11.39-24.79l-24.67,11.44
				c-13.83,6.54-31.18,14.98-39.04,19.07c-7.86,3.81-15.18,7.08-16.81,7.08c-1.36,0-8.95-18.25-16.81-40.85
				c-8.13-22.33-15.18-40.85-16-40.85s-7.86,18.52-16,40.85c-7.86,22.61-15.45,40.85-16.81,40.85c-1.63,0-8.95-3.27-16.81-7.08
				c-7.86-4.09-25.21-12.53-39.04-19.07l-24.67-11.44l11.39,24.79c6.51,13.89,15.18,32.14,19.52,40.85
				c5.96,11.98,7.05,16.34,4.34,17.98c-1.9,1.09-20.6,8.17-41.21,15.25c-20.88,7.35-37.95,14.16-37.95,14.98
				c0,0.82,18.43,7.9,40.67,16.07c22.5,7.9,40.67,15.52,40.67,16.89c0,1.63-3.25,8.99-7.05,16.89c-4.07,7.9-12.47,25.33-18.71,38.95
				l-11.66,25.06l19.52-8.99c10.57-4.9,28.19-13.35,38.77-18.79c10.84-5.45,20.87-9.81,22.23-9.81s8.95,18.52,16.81,40.85
				c8.13,22.61,15.18,40.85,16,40.85S5011.36,2858.67,5019.49,2836.06z"/>
			<path d="M4992.65,2797.93c-10.84-31.32-7.59-30.23-41.75-13.07c-11.66,5.99-21.69,10.08-22.5,9.53
				c-0.54-0.82,4.34-12.53,11.12-26.15c6.78-13.62,12.47-25.6,12.47-26.69c0-1.36-12.2-6.54-27.11-11.71
				c-14.91-4.9-27.11-10.08-27.11-10.89c0-0.82,12.2-5.72,27.11-10.89c14.91-5.17,27.11-10.35,27.11-11.71
				c0-1.09-5.69-13.07-12.47-26.69c-6.78-13.62-11.66-25.33-11.12-26.15c0.81-0.54,12.47,4.36,26.03,11.17
				c13.56,6.81,25.48,12.53,26.57,12.53c1.36,0,6.51-12.26,11.66-27.24c5.15-14.98,10.03-27.24,10.84-27.24s5.69,12.26,10.84,27.24
				c5.15,14.98,10.3,27.24,11.66,27.24c1.08,0,13.01-5.72,26.57-12.53c13.55-6.81,25.21-11.71,26.03-11.17
				c0.54,0.82-3.52,10.89-9.49,22.61c-17.08,34.32-18.16,31.05,13.01,41.94c14.91,5.18,27.11,10.08,27.11,10.89
				c0,0.82-12.2,5.99-27.11,10.89c-14.91,5.17-27.11,10.35-27.11,11.71c0,1.09,5.69,13.07,12.47,26.69
				c6.78,13.62,11.66,25.33,11.11,26.15c-0.81,0.54-10.84-3.54-22.5-9.53c-34.16-17.16-30.91-18.25-41.75,13.07
				c-4.88,14.98-10.03,27.24-10.84,27.24S4997.8,2812.91,4992.65,2797.93z M5010.27,2765.25c2.71-8.99,5.42-16.34,5.96-16.34
				c0.54,0,7.05,3.27,14.64,7.08c7.59,3.81,14.37,6.26,15.18,5.72c0.54-0.82-1.9-7.63-5.96-15.25l-7.05-14.16l9.22-3.81
				c4.88-1.91,12.2-4.63,16.27-5.45c11.12-3,8.95-5.45-8.95-10.89c-8.95-2.72-16.27-5.45-16.27-5.99s3.25-7.08,7.05-14.71
				c3.8-7.63,6.24-14.44,5.69-15.25c-0.81-0.54-7.59,1.91-15.18,5.72c-7.59,3.81-14.1,7.08-14.64,7.08c-0.54,0-3.25-7.35-5.96-16.34
				c-2.71-8.99-5.69-16.34-6.78-16.34s-4.07,7.35-6.78,16.34s-5.42,16.34-5.96,16.34s-7.05-3.27-14.64-7.08
				c-7.59-3.81-14.37-6.26-15.18-5.72c-0.54,0.82,1.9,7.63,5.69,15.25c3.8,7.63,7.05,14.16,7.05,14.71s-7.32,3.27-16.27,5.99
				s-16.27,5.72-16.27,6.81c0,1.09,7.32,4.09,16.27,6.81c8.95,2.72,16.27,5.45,16.27,5.99s-3.25,7.08-7.05,14.71
				s-6.24,14.44-5.69,15.25c0.81,0.54,7.59-1.91,15.18-5.72c7.59-3.81,14.1-7.08,14.64-7.08s3.25,7.35,5.96,16.34
				s5.69,16.34,6.78,16.34S5007.56,2774.23,5010.27,2765.25z"/>
		</g>
	</g>
</g>
</svg>
