<?xml version="1.0" encoding="utf-8"?>
<!-- Generator: Adobe Illustrator 23.1.0, SVG Export Plug-In . SVG Version: 6.00 Build 0)  -->
<svg version="1.1" xmlns="http://www.w3.org/2000/svg" xmlns:xlink="http://www.w3.org/1999/xlink" x="0px" y="0px"
	 viewBox="0 0 1024 768" style="enable-background:new 0 0 1024 768;" xml:space="preserve">
<style type="text/css">
	.st0{fill:#FFFF00;}
</style>
<g id="Layer_1">
	<g>
		<path class="st0" d="M298.7,570c-1.55,0-2.66-0.18-3.37-0.38c0.19-0.71,0.58-1.76,1.36-3.11l202.09-350.04
			c0.78-1.34,1.49-2.21,2.01-2.73c0.52,0.52,1.23,1.39,2.01,2.73L704.9,566.52c0.78,1.34,1.17,2.39,1.36,3.11
			c-0.71,0.19-1.82,0.38-3.37,0.38H298.7z"/>
		<path d="M500.79,243l180.13,312H320.66L500.79,243 M500.79,198.26c-5.44,0-10.88,3.57-15,10.72L283.7,559.02
			c-8.25,14.29-1.5,25.98,15,25.98h404.19c16.5,0,23.25-11.69,15-25.98L515.79,208.98C511.67,201.84,506.23,198.26,500.79,198.26
			L500.79,198.26z"/>
	</g>
</g>
<g id="Layer_2">
	<g>
		<g transform="translate(0.000000,512.000000) scale(0.100000,-0.100000)">
			<path d="M4503.27,1417.66c-2.5-4.48-5.83-13.45-7.5-20.38c-1.67-6.52-6.66-22.83-11.24-35.47
				c-9.16-24.46-14.58-28.54-57.47-44.43c-7.5-2.85-29.15-15.08-47.89-26.9c-34.15-22.42-47.89-39.54-48.31-61.15
				c0-4.89-3.33-9.78-7.08-11.01c-4.16-0.82-29.15-7.75-55.39-14.68s-49.98-13.45-52.89-14.27c-10-3.26-18.32-20.79-14.58-30.98
				c2.08-5.3,2.92-29.35,1.67-52.99c-2.5-54.62,5-82.34,26.24-101.1c8.33-6.93,19.16-12.64,24.57-12.64
				c6.25,0,12.49-4.08,17.49-11.01c3.75-6.52,10.41-13.45,13.74-16.31c8.33-6.52,30.4-6.52,51.23-0.41
				c14.58,4.08,17.08,3.67,24.57-3.26c4.58-4.48,14.16-24.05,21.66-42.8c7.5-19.16,16.24-39.13,19.57-44.03
				c7.5-11.01,24.16-12.64,39.98-4.48c5.41,3.26,11.24,4.08,12.91,2.85c6.25-6.52,9.16-49.33,9.58-153.68
				c0-85.2,1.67-117.4,6.25-134.52c3.33-12.23,7.5-34.24,8.75-48.92c4.16-39.13,14.58-62.37,56.64-124.74
				c42.48-63.19,53.31-88.46,53.31-122.29c0-18.75,3.33-30.57,18.32-62.37c24.99-53.81,54.14-149.61,77.05-254.78
				c8.33-37.91,8.75-41.58,2.5-62.37c-7.08-23.24-7.5-23.64-32.07-27.72c-20.41-3.26-41.65-23.64-39.98-38.32
				c0.83-7.34,5.41-12.64,14.58-17.12l13.33-6.52l-20.82-18.34c-24.16-21.61-25.82-30.17-5.83-38.32
				c31.24-12.64,153.26-3.26,176.58,13.86c13.74,9.78,35.82,44.84,46.64,75.01c7.5,19.57,10.83,23.64,20.82,25.68
				c19.16,4.08,26.24,18.75,25.4,50.14c-0.42,15.08,2.08,47.69,5.41,72.15c6.66,45.25,38.32,222.98,41.65,234.4
				c1.67,5.3,13.33,6.11,71.63,6.11c77.05,0.41,117.44,6.11,214.07,32.2c59.14,15.9,187.83,59.92,216.98,74.19
				c11.66,5.71,22.49,14.68,26.24,22.01c6.66,12.64,19.99,22.83,32.48,25.27c6.25,0.82,7.91-2.04,9.16-17.53
				c2.5-40.76,33.73-107.62,94.12-201.79c19.99-31.8,47.48-77.45,60.39-101.5c23.32-43.21,23.74-44.84,25.82-83.57
				c2.08-41.17-2.92-65.63-21.24-107.21c-9.16-21.61-18.32-27.31-43.31-27.31c-10.83,0-17.91-3.26-28.32-13.45
				c-19.16-18.75-22.91-34.65-10.83-44.03c18.74-15.08,85.79-15.49,115.36-1.22c13.74,6.52,17.08,11.01,22.91,30.17
				c3.75,12.23,15.41,42.8,26.24,68.08c10.41,25.27,19.16,48.1,19.16,50.96c0,7.34,37.9,80.71,41.65,80.71
				c6.25,0,17.08-33.83,21.24-65.63c5-35.87-1.25-120.66-9.58-133.71c-2.92-4.89-11.24-8.56-21.66-9.78
				c-27.07-2.85-64.97-15.08-73.72-23.64c-18.74-18.34-14.99-44.03,7.5-55.03c12.91-6.52,25.4-7.75,69.97-7.75
				c60.39,0,74.96,2.45,80.8,13.86c2.5,4.08,6.25,25.68,8.33,47.69c2.08,22.42,7.08,50.55,10.83,62.78
				c4.16,12.23,12.49,52.59,18.74,89.68s15.41,76.64,19.99,88.05c9.58,23.64,8.33,27.72-19.16,62.78
				c-14.99,19.97-34.15,74.19-44.56,127.19c-5.41,29.35-5.83,43.21-2.5,83.57c2.5,26.5,4.58,64.82,4.58,84.79v36.69l11.66-20.38
				c6.25-11.01,19.16-31.39,28.32-44.84c9.58-13.45,22.49-34.65,28.74-46.88c19.16-37.91,40.4-54.22,91.62-70.93
				c30.82-9.78,111.61-23.24,115.36-19.57c7.5,7.34-37.07,43.62-79.55,66.04c-49.98,25.68-63.72,39.95-87.46,90.09
				c-58.72,125.15-58.31,122.29-61.22,238.07l-2.5,81.53l-14.58,29.76c-10.83,22.42-24.16,39.95-54.56,70.52
				c-22.07,22.42-48.31,45.66-58.31,51.36c-10.41,6.11-40.81,15.9-68.72,22.01c-27.9,6.52-61.22,14.68-73.72,18.34
				c-34.57,10.19-134.1,8.97-224.89-2.45c-88.29-11.01-176.17-15.9-262.38-14.27c-80.8,1.63-104.12,7.75-155.34,42.8
				c-32.07,22.01-37.9,24.46-50.39,22.42c-18.32-3.67-27.49,1.63-60.8,32.61c-35.82,33.02-47.48,40.36-67.88,40.36l-17.49,0.41
				l-16.66,48.92c-21.24,60.33-24.99,67.67-58.72,108.43l-27.07,32.61l-7.91,45.66c-12.91,74.6-26.24,101.91-70.38,143.08
				c-34.98,32.2-39.56,30.98-52.06-15.9c-10.41-39.13-39.98-58.7-58.72-38.73c-5.83,6.52-8.33,17.53-10,48.1
				C4508.27,1418.07,4507.02,1424.19,4503.27,1417.66z"/>
		</g>
	</g>
</g>
</svg>
