<?xml version="1.0" encoding="utf-8"?>
<!-- Generator: Adobe Illustrator 23.1.0, SVG Export Plug-In . SVG Version: 6.00 Build 0)  -->
<svg version="1.1" xmlns="http://www.w3.org/2000/svg" xmlns:xlink="http://www.w3.org/1999/xlink" x="0px" y="0px"
	 viewBox="0 0 1024 768" style="enable-background:new 0 0 1024 768;" xml:space="preserve">
<style type="text/css">
	.st0{fill:#FFFF00;}
</style>
<g id="Layer_1">
	<g>
		<path class="st0" d="M298.7,570c-1.55,0-2.66-0.18-3.37-0.38c0.19-0.71,0.58-1.76,1.36-3.11l202.09-350.04
			c0.78-1.34,1.49-2.21,2.01-2.73c0.52,0.52,1.23,1.39,2.01,2.73L704.9,566.52c0.78,1.34,1.17,2.39,1.36,3.11
			c-0.71,0.19-1.82,0.38-3.37,0.38H298.7z"/>
		<path d="M500.79,243l180.13,312H320.66L500.79,243 M500.79,198.26c-5.44,0-10.88,3.57-15,10.72L283.7,559.02
			c-8.25,14.29-1.5,25.98,15,25.98h404.19c16.5,0,23.25-11.69,15-25.98L515.79,208.98C511.67,201.84,506.23,198.26,500.79,198.26
			L500.79,198.26z"/>
	</g>
</g>
<g id="Layer_2">
	<g>
		<g transform="translate(0.000000,512.000000) scale(0.100000,-0.100000)">
			<path d="M4812.97,2050.81c-34.87-12.51-67.21-41.71-77.82-70.91c-7.07-17.61-8.59-40.78-8.59-109.83v-87.13h37.9h37.9v-54.69
				c0-60.66,0.51-59.74-37.9-60.2c-8.09,0-25.77-3.22-38.41-6.43c-89.45-24.82-146.05-88.7-146.05-164.99v-26.2h425h425l-2.02,40.44
				c-2.53,46.88-16.68,79.97-47.5,110.76c-27.79,28.49-79.34,50.55-116.74,51.01c-31.84,0-31.84,0.46-31.84,60.2v50.09h35.88h35.88
				l-2.02,91.76c-1.52,79.71-3.03,94.08-12.13,112.15c-14.66,29.66-32.34,47.27-60.64,60.25l-24.76,11.59l-181.93,0.93
				C4847.84,2060.54,4839.25,2060.54,4812.97,2050.81z"/>
			<path d="M4580,886.78V422.62h424.49h424.49v464.17v464.17h-424.49H4580V886.78z M5052.56,1019.64
				c57.1-71.23,90.46-141.09,90.46-188.42c0-34.01-8.59-54.23-32.85-79.05c-59.13-59.28-164.74-45.5-205.68,27.57
				c-29.82,52.85-9.6,120.87,66.71,223.81c41.94,56.07,41.44,56.07,47.5,54.23C5021.23,1056.87,5036.9,1039.86,5052.56,1019.64z"/>
			<path d="M4580,229.6v-73.53h424.49h424.49v73.53v73.53h-424.49H4580V229.6z"/>
			<path d="M4580-45.46c0-69.13,1.52-86.64,9.6-107.84c25.27-67.75,88.44-118.44,164.24-132.73c18.7-3.23,107.64-4.61,279.46-3.69
				l251.66,1.38l29.82,13.37c36.89,16.59,58.12,33.64,78.83,62.68c29.82,41.94,35.37,68.67,35.37,164.07v84.8h-424.49H4580V-45.46z"
				/>
		</g>
	</g>
</g>
</svg>
