<?xml version="1.0" encoding="utf-8"?>
<!-- Generator: Adobe Illustrator 23.1.0, SVG Export Plug-In . SVG Version: 6.00 Build 0)  -->
<svg version="1.1" xmlns="http://www.w3.org/2000/svg" xmlns:xlink="http://www.w3.org/1999/xlink" x="0px" y="0px"
	 viewBox="0 0 1024 768" style="enable-background:new 0 0 1024 768;" xml:space="preserve">
<style type="text/css">
	.st0{fill:#FFFF00;}
</style>
<g id="Layer_1">
	<g>
		<path class="st0" d="M298.7,570c-1.55,0-2.66-0.18-3.37-0.38c0.19-0.71,0.58-1.76,1.36-3.11l202.09-350.04
			c0.78-1.34,1.49-2.21,2.01-2.73c0.52,0.52,1.23,1.39,2.01,2.73L704.9,566.52c0.78,1.34,1.17,2.39,1.36,3.11
			c-0.71,0.19-1.82,0.38-3.37,0.38H298.7z"/>
		<path d="M500.79,243l180.13,312H320.66L500.79,243 M500.79,198.26c-5.44,0-10.88,3.57-15,10.72L283.7,559.02
			c-8.25,14.29-1.5,25.98,15,25.98h404.19c16.5,0,23.25-11.69,15-25.98L515.79,208.98C511.67,201.84,506.23,198.26,500.79,198.26
			L500.79,198.26z"/>
	</g>
</g>
<g id="Layer_2">
	<g>
		<g id="surface1_1_">
			<path d="M504,400.44c-0.24,0.57-0.51,0.65-1.33,0.6c-2.23-0.17-5.76-0.03-6.11,0.27c-0.22,0.17-0.66,0.24-1.01,0.12
				c-0.44-0.15-0.59-0.05-0.59,0.32c0,0.43-0.2,0.48-1.6,0.31c-0.98-0.09-1.7-0.07-1.8,0.12c-0.09,0.15-0.66,0.29-1.25,0.29
				c-1.01,0-1.04,0.03-0.86,0.92l0.17,0.89l-1.56-0.19c-1.4-0.17-1.6-0.12-2.26,0.57c-0.38,0.41-1.18,0.85-1.78,0.95
				c-0.59,0.12-1.48,0.44-1.98,0.73c-0.51,0.33-1.35,0.57-1.84,0.57c-0.5,0-1.01,0.15-1.1,0.32c-0.11,0.19-0.89,0.27-1.75,0.24
				c-0.82-0.03-1.86,0.07-2.27,0.17c-0.54,0.12-1.13,0.04-1.75-0.29c-0.57-0.29-1.25-0.41-1.7-0.29c-0.38,0.09-1.18,0-1.71-0.21
				c-0.83-0.27-1.16-0.27-1.79,0.07c-0.65,0.35-0.89,0.32-1.78-0.09c-1.36-0.65-3.28-0.95-3.52-0.56c-0.12,0.2-0.65,0.17-1.6-0.09
				c-4.26-1.21-4.53-1.24-11.09-0.97c-3.46,0.12-7.49,0.44-8.97,0.71c-2.91,0.53-7.41,1.99-8.15,2.64c-0.23,0.21-1.06,0.65-1.8,0.99
				c-0.74,0.32-1.63,0.92-1.96,1.33c-0.52,0.68-1.71,1.36-3.11,1.82c-0.74,0.23-0.65,0.71,0.15,0.83c0.54,0.05,0.36,0.29-1.28,1.48
				c-2.49,1.79-3.04,2.42-2.84,3.15c0.2,0.65-1.18,2.91-4.36,7.02c-2.64,3.38-3.38,4.87-3.7,7.45c-0.17,1.19-0.57,2.56-0.96,3.22
				c-0.35,0.63-0.71,1.7-0.77,2.38c-0.12,1.7-0.54,3.68-1.01,5.05c-0.3,0.8-0.32,1.28-0.12,1.6c0.24,0.39,0.19,0.89-0.23,1.94
				c-0.63,1.67-0.69,2.35-0.15,2.26c0.42-0.08,0.35,3.66-0.12,6.9c-0.74,5.02-0.83,6.15-0.74,10.16c0.05,2.59,0.27,4.58,0.47,4.97
				c0.32,0.65,1.48,6.62,1.48,7.88c0,0.32,0.32,0.92,0.71,1.31c0.86,0.8,2.52,5.02,2.76,6.95c0.15,1.09,0.3,1.43,0.71,1.43
				s0.71,0.59,1.3,2.58c0.94,3.1,1.21,6.78,0.79,10.76c-0.2,1.91-0.2,2.98,0,3.3c0.24,0.36,0.12,1.84-0.35,5.09
				c-0.78,5.38-0.71,9.18,0.3,13.64c1.09,5.05,1.68,6.47,3.08,7.49c0.65,0.47,1.53,1,1.92,1.15c0.39,0.15,3.52,0.53,6.97,0.87
				c7.82,0.71,9.04,0.89,9.24,1.21c0.32,0.53,1.21,0.27,1.55-0.47c0.44-0.96,1.24-0.96,2.13,0c0.39,0.41,0.81,0.73,0.96,0.73
				c0.11,0,0.38-0.63,0.55-1.36c0.48-1.82,1.05-1.99,2.14-0.63c0.47,0.63,0.98,1.09,1.13,1.09s0.27-1,0.27-2.23
				c0-2.58,0.2-2.7,1.95-1.29c0.98,0.76,1.18,0.83,1.24,0.41c0.12-0.6-0.5-2.62-1.51-4.91c-0.77-1.68-1.48-2.52-4.59-5.05
				c-1.04-0.83-2.07-1.99-2.34-2.52c-0.44-0.95-0.44-1.04,0.77-3.83c0.65-1.58,1.33-3.46,1.51-4.16c0.51-2.28,2.53-7.01,3-7.01
				c0.3,0,1.43,6.18,1.6,8.9c0.12,1.4,0.05,3.87-0.09,5.5c-0.32,3.51-0.35,3.44,2.73,6.63c1.65,1.75,2.64,2.43,4.59,3.38
				c1.4,0.69,2.85,1.23,3.27,1.19c0.4-0.03,2.78-0.11,5.27-0.23c4.26-0.19,4.56-0.15,5.57,0.44c1.83,1.07,2.22,0.83,1.48-0.92
				c-0.32-0.8,0.62-1.01,2.1-0.44c1.48,0.53,1.75,0.35,1.13-0.84c-0.57-1.09-0.32-1.24,0.94-0.61c0.59,0.27,1.16,0.44,1.22,0.35
				c0.08-0.08,0-0.56-0.17-1.09c-0.42-1.25-0.42-1.45,0.08-1.28c0.83,0.33,0.74-0.44-0.17-1.7c-1.21-1.58-4.18-3.62-6.48-4.46
				c-3.32-1.21-3.62-2.62-1.43-6.26c1.8-2.98,3.05-6.3,4.14-10.95c0.54-2.19,1.3-5.49,1.75-7.27l0.77-3.27l3.57-0.17
				c7.49-0.41,11.44-0.39,11.68,0.05c0.38,0.69,1.78,8.29,1.78,9.66c0,0.71,0.15,1.31,0.35,1.36c0.36,0.12,0.62,1.82,1.08,6.47
				c0.17,1.82,0.3,2.23,0.7,2.23c0.27,0,0.59,0.09,0.69,0.21c0.24,0.21,1.78,10.61,2.07,13.91c0.32,3.92,1.7,5.7,5.93,7.73l2.07,1
				l7.41,0.15l7.44,0.19l1.24,0.97c0.69,0.57,1.25,1.13,1.25,1.28c0,0.15,0.11,0.27,0.26,0.27c0.48,0,0.66-1.07,0.39-2.32
				c-0.47-2.07,0.51-2.14,3.11-0.15c0.98,0.75,1.45,0.57,1.16-0.51c-0.08-0.32-0.27-0.85-0.35-1.19c-0.24-0.85,0.38-0.73,2.04,0.31
				c1.68,1.07,1.68,1.07,1.68,0.29s-0.91-2.62-1.75-3.48c-0.55-0.59-0.82-1.27-0.5-1.27c0.05,0,0.69,0.32,1.39,0.71
				c1.49,0.87,1.72,0.8,1.52-0.32c-0.09-0.51-1.43-2.08-3.74-4.4c-3.52-3.51-3.65-3.59-6.24-4.54c-4.33-1.62-4.75-1.84-4.84-3
				c-0.15-1.37,0.51-5.02,0.96-5.47c0.24-0.2,0.47-1.72,0.59-3.78c0.12-1.87,0.47-5.31,0.77-7.69c0.34-2.4,0.59-5.29,0.63-6.42
				c0-1.16,0.11-2.82,0.23-3.71l0.17-1.64l1.16,2.38c2.41,4.99,3.77,9.78,4.33,15.02c0.3,2.88,0.65,4.69,2.39,12.41
				c0.69,2.98,1.43,4.19,3.62,5.94c2.07,1.67,2.81,1.94,6.08,2.15c2.69,0.17,3.19,0.32,4.49,1.12l1.45,0.92l0.39-0.8
				c0.39-0.75,0.5-0.8,1.95-0.71c0.86,0.05,2.88-0.12,4.51-0.39l2.93-0.53l1.67,0.83c0.91,0.44,1.75,0.71,1.86,0.6
				c0.09-0.09-0.03-0.81-0.3-1.55c-0.26-0.77-0.44-1.49-0.35-1.64c0.09-0.12,0.57,0.07,1.09,0.36c0.54,0.33,1.28,0.6,1.64,0.6h0.7
				l-0.77-1.31c-0.91-1.62-0.94-1.79-0.15-1.58c0.86,0.23,1.04-0.53,0.44-1.76c-0.59-1.27-0.59-1.6-0.03-1.6
				c0.24,0,0.44-0.12,0.44-0.27c0-0.44-2.34-2.4-2.91-2.4c-0.27,0-1.04-0.31-1.68-0.63c-0.66-0.36-2.58-1.09-4.33-1.63
				c-4.83-1.55-5.1-1.96-4.41-7.26c0.17-1.21,0.42-3.95,0.57-6.06c0.23-2.96,0.38-3.88,0.74-4.1c0.5-0.29,0.47-1.13-0.17-4.24
				c-0.16-0.84-0.39-3.42-0.54-5.79c-0.15-2.38-0.42-5.33-0.59-6.51c-0.17-1.21-0.3-3.8-0.24-5.7c0.09-3.39,0.12-3.51,1.01-4.61
				c0.71-0.89,1.33-1.25,2.96-1.79c1.13-0.36,2.56-0.85,3.15-1.12c1.51-0.65,2.25-0.6,3.38,0.27c1.16,0.88,1.51,0.92,1.75,0.17
				c0.39-1.19,2.14-1.01,2.81,0.27c0.42,0.8,0.69,0.75,1.84-0.29c1.33-1.25,2.07-1.37,3.16-0.57l0.93,0.69l0.74-0.72
				c0.74-0.68,0.77-0.68,1.6-0.2l0.86,0.49l0.65-1.03c0.71-1.16,0.96-1.25,1.48-0.6c0.27,0.32,1.01,0.44,2.78,0.44
				c1.67,0,3.23,0.24,5.07,0.75c2.99,0.83,6.38,1.21,7.96,0.92c0.98-0.17,3.03-2.02,7.68-6.89c0.27-0.33,0.86-0.87,1.25-1.23
				c1.18-1.07,1-2.4-0.61-4.15c-1.51-1.7-3.63-5.14-5.33-8.56c-1.1-2.27-1.16-2.5-1.36-6.39c-0.12-2.2-0.36-4.36-0.51-4.82
				c-0.79-2.02-4.91-7.76-7.52-10.48c-2.19-2.27-2.58-3.12-3.17-6.61c-0.3-1.78-0.83-3.86-1.16-4.63c-0.5-1.16-0.77-1.4-1.63-1.55
				c-2.31-0.44-4.53,0.96-5.42,3.36c-0.3,0.77-0.54,1.43-0.57,1.45c0,0.03-2.22-0.12-4.92-0.33c-3.35-0.29-5.45-0.61-6.73-1.07
				c-1.09-0.39-2.15-0.56-2.57-0.47c-0.42,0.12-0.98,0.03-1.3-0.19c-0.44-0.27-0.69-0.27-1.01,0c-0.32,0.27-0.54,0.24-0.96-0.23
				c-0.59-0.69-1.21-0.77-1.39-0.24c-0.09,0.27-0.51,0.2-1.6-0.21c-0.81-0.29-1.8-0.53-2.26-0.47c-0.4,0.03-0.85-0.09-0.97-0.28
				c-0.12-0.2-0.57-0.27-1.08-0.15c-0.59,0.15-1.12,0.04-1.59-0.27c-0.39-0.27-0.96-0.47-1.25-0.47s-0.83-0.21-1.18-0.45
				c-0.54-0.39-0.77-0.39-1.25-0.12c-0.47,0.33-0.7,0.24-1.48-0.39c-0.57-0.49-1.12-0.71-1.48-0.61c-0.39,0.08-0.94-0.15-1.57-0.65
				c-0.82-0.68-1.01-0.75-1.06-0.33c-0.15,0.72-0.57,0.57-1.16-0.41c-0.57-0.95-0.94-1.09-1.51-0.53c-0.24,0.24-0.42,0.15-0.62-0.41
				c-0.42-1.07-0.83-1.25-1.28-0.53c-0.59,0.92-1.1,0.71-1.3-0.6c-0.2-1.27-0.42-1.45-1.01-0.73c-0.44,0.53-0.89,0.32-0.89-0.45
				c0-0.71-0.59-1.09-0.89-0.59c-0.3,0.51-1.18,0.15-1.18-0.45c0-0.51-0.47-0.59-0.74-0.15c-0.34,0.53-1.04,0.33-1.04-0.29
				s-0.71-0.83-1.04-0.29c-0.31,0.49-0.96,0.32-1.13-0.31c-0.17-0.71-0.86-0.76-1.4-0.15c-0.52,0.65-0.89,0.53-0.89-0.29
				c0-0.87-0.23-0.92-1.06-0.29c-0.74,0.56-1.01,0.56-1.01,0c0-0.6-0.27-0.57-0.94,0.05c-0.48,0.45-0.66,0.45-1.2,0.12
				c-0.55-0.36-0.7-0.32-1.21,0.29l-0.57,0.72l-0.59-0.84c-0.59-0.83-1.36-1.03-1.9-0.49c-0.47,0.47-1.28,0.03-1.78-0.92
				c-0.42-0.84-0.5-0.87-2.02-0.69c-1.26,0.16-1.6,0.09-1.75-0.29C504.97,399.58,504.32,399.68,504,400.44z"/>
		</g>
	</g>
</g>
</svg>
